<svg width="2363" height="1287" xmlns="http://www.w3.org/2000/svg" xmlns:xlink="http://www.w3.org/1999/xlink" xml:space="preserve" overflow="hidden"><defs><clipPath id="clip0"><path d="M1674 1472.05 2666 1472.05 2666 479.948 1674 479.948 1674 1472.05 1674 1472.05Z"/></clipPath></defs><g transform="translate(-949 -478)"><g><g><g><g><g clip-path="url(#clip0)"><path d="M597.463 724.149 584.56 737.096C585.974 742.045 586.681 747.127 586.681 752.252 586.681 782.653 561.98 807.399 531.579 807.399 501.177 807.399 476.565 782.653 476.565 752.252 476.565 721.851 501.177 697.194 531.579 697.194 536.793 697.194 541.874 697.857 546.823 699.315L559.726 686.368C553.982 674.924 550.977 662.286 550.977 649.251 550.977 636.215 553.938 623.666 559.726 612.221L546.823 599.274C541.919 600.688 536.793 601.395 531.579 601.395 501.177 601.395 476.565 576.65 476.565 546.249 476.565 515.848 501.177 491.103 531.579 491.103 561.98 491.103 586.681 515.848 586.681 546.249 586.681 551.375 585.93 556.456 584.56 561.405L597.463 574.352C608.907 568.696 621.457 565.692 634.536 565.692 647.616 565.692 660.077 568.652 671.521 574.352L674.703 571.171C674.349 568.475 673.863 565.868 673.421 563.173 673.245 561.317 672.847 559.549 672.493 557.694 671.919 554.645 671.389 551.463 670.638 548.414 669.798 544.128 668.87 540.063 667.854 535.688 665.733 527.116 663.391 518.499 660.784 509.838 659.502 505.861 658.353 501.929 657.072 497.952 656.056 494.991 655.128 491.898 654.023 488.849 653.007 486.065 652.079 483.193 651.062 480.277 649.869 477.095 648.72 473.869 647.527 470.688 646.334 467.639 645.097 464.546 643.992 461.497 636.746 443.071 628.747 424.6 620.087 406.174 617.214 400.032 614.21 393.89 611.161 387.748 607.979 381.252 604.754 374.712 601.307 368.305L601.307 368.217C598.7 363.267 596.181 358.363 593.574 353.414 590.967 348.509 588.36 343.471 585.664 338.611 582.306 332.469 578.86 326.327 575.457 320.184 572.938 315.898 570.641 311.745 568.122 307.458 530.872 242.635 492.207 186.03 467.197 150.945 466.004 149.266 464.855 147.675 463.839 146.217 463.485 145.731 463.176 145.289 462.911 144.936 461.055 142.329 459.288 139.898 457.608 137.601 453.72 132.298 450.362 127.747 447.754 124.123 406.66 179.446 217.934 442.761 217.934 608.377 217.934 733.826 310.198 867.98 447.754 867.98 539.312 867.98 610.852 808.459 648.411 731.572 643.86 732.324 639.22 732.677 634.58 732.677 621.501 732.677 608.951 729.716 597.507 724.016L597.507 724.016Z" fill="#1C5B62" transform="matrix(1.00043 0 0 1 1674 479.948)"/><path d="M737.405 715.797C734.224 715.797 731.175 716.151 728.303 716.99 724.591 717.83 721.144 719.421 718.007 721.365L711.599 714.958 685.75 689.108C694.278 678.149 699.404 664.274 699.404 649.295 699.404 634.315 694.278 620.573 685.75 609.482L718.007 577.225C723.663 580.76 730.291 582.881 737.449 582.881 757.599 582.881 773.993 566.531 773.993 546.337 773.993 526.144 757.643 509.794 737.449 509.794 734.754 509.794 732.147 510.059 729.716 510.634L729.628 510.634C713.19 514.257 700.906 528.839 700.906 546.337 700.906 552.391 702.409 557.959 705.016 562.996 705.457 563.924 706.032 564.852 706.606 565.78L677.133 595.165 674.261 598.037C663.302 589.465 649.56 584.383 634.58 584.383 624.992 584.383 615.889 586.416 607.714 590.26 603.074 592.293 598.788 594.988 594.811 598.081L588.758 592.027 562.554 565.824C566.089 560.168 568.122 553.54 568.122 546.382 568.122 526.188 551.772 509.838 531.579 509.838 529.237 509.838 526.939 510.015 524.685 510.501 507.761 513.771 495.124 528.53 495.124 546.382 495.124 552.126 496.405 557.649 498.924 562.466L499.012 562.554C504.889 574.529 517.129 582.925 531.534 582.925 538.693 582.925 545.365 580.804 550.977 577.269L583.234 609.526C574.794 620.573 569.58 634.359 569.58 649.339 569.58 650.002 569.58 650.62 569.668 651.283 570.022 665.512 575.148 678.635 583.234 689.108L550.977 721.365C545.409 717.83 538.693 715.797 531.534 715.797 528.662 715.797 525.967 716.151 523.271 716.814 507.099 720.525 495.124 734.931 495.124 752.252 495.124 758.571 496.715 764.448 499.498 769.618 505.64 781.063 517.704 788.751 531.579 788.751 551.728 788.751 568.122 772.402 568.122 752.208 568.122 745.138 566.089 738.466 562.554 732.854L594.811 700.508C605.77 709.081 619.512 714.162 634.58 714.162 642.843 714.162 650.753 712.572 658 709.699 663.833 707.446 669.356 704.309 674.261 700.508L706.606 732.854C702.983 738.422 700.95 745.138 700.95 752.208 700.95 758.704 702.629 764.846 705.678 770.148L705.678 770.237C711.997 781.284 723.795 788.751 737.449 788.751 757.599 788.751 773.993 772.402 773.993 752.208 773.993 732.014 757.643 715.753 737.449 715.753L737.449 715.753ZM708.418 532.904C710.76 527.69 715.665 524.73 719.465 526.409 723.265 528.088 724.502 533.655 722.16 538.958 719.818 544.26 714.914 547.133 711.113 545.454 707.313 543.863 706.076 538.207 708.418 532.904L708.418 532.904ZM517.527 538.958C515.185 544.26 510.28 547.133 506.48 545.454 502.768 543.863 501.575 538.207 503.785 532.904 506.126 527.69 511.031 524.73 514.831 526.409 518.632 528.088 519.869 533.655 517.527 538.958L517.527 538.958ZM517.527 745.845C515.185 751.148 510.28 754.108 506.48 752.429 502.768 750.75 501.575 745.182 503.785 739.88 506.126 734.577 511.031 731.617 514.831 733.296 518.632 734.975 519.869 740.631 517.527 745.845L517.527 745.845ZM610.365 632.503C606.079 642.446 596.8 647.925 589.641 644.876 582.483 641.695 580.274 631.222 584.604 621.28 588.89 611.338 598.17 605.858 605.328 608.907 612.398 612.089 614.696 622.561 610.365 632.503L610.365 632.503ZM722.16 745.845C719.818 751.148 714.914 754.108 711.113 752.429 707.313 750.75 706.076 745.182 708.418 739.88 710.76 734.577 715.665 731.617 719.465 733.296 723.265 734.975 724.502 740.631 722.16 745.845L722.16 745.845Z" fill="#6FA64A" transform="matrix(1.00043 0 0 1 1674 479.948)"/></g></g></g></g></g><text fill="#1C5B62" font-family="Arial Nova Light,Arial Nova Light_MSFontService,sans-serif" font-weight="700" font-size="220" transform="matrix(1 0 0 1 1081.36 1533)">Wet</text><text font-family="Arial Nova Light,Arial Nova Light_MSFontService,sans-serif" font-weight="700" font-size="220" transform="matrix(1 0 0 1 1443.95 1533)">Lab </text><text font-family="Arial Nova Light,Arial Nova Light_MSFontService,sans-serif" font-weight="300" font-size="220" transform="matrix(1 0 0 1 1856.45 1533)">meets</text><text fill="#6FA64A" font-family="Arial Nova Light,Arial Nova Light_MSFontService,sans-serif" font-weight="700" font-size="220" transform="matrix(1 0 0 1 2489.66 1533)">Dry</text><text font-family="Arial Nova Light,Arial Nova Light_MSFontService,sans-serif" font-weight="700" font-size="220" transform="matrix(1 0 0 1 2824.56 1533)">Lab</text><text font-family="Arial Nova Light,Arial Nova Light_MSFontService,sans-serif" font-weight="300" font-size="101" transform="matrix(1 0 0 1 1085.35 1681)">Workshop on </text><text font-family="Arial Nova Light,Arial Nova Light_MSFontService,sans-serif" font-weight="300" font-size="101" transform="matrix(1 0 0 1 1679.64 1681)">Machine</text><text font-family="Arial Nova Light,Arial Nova Light_MSFontService,sans-serif" font-weight="300" font-size="101" transform="matrix(1 0 0 1 2075.53 1681)">Learning and </text><text font-family="Arial Nova Light,Arial Nova Light_MSFontService,sans-serif" font-weight="300" font-size="101" transform="matrix(1 0 0 1 2667.26 1681)">Biocatalysis</text></g></svg>